<svg width="40" height="40" viewBox="0 0 40 40" fill="none" xmlns="http://www.w3.org/2000/svg">
<g clip-path="url(#clip0_547_118)">
<rect y="16.6666" width="23.3333" height="23.3333" fill="#7595FD"/>
<path d="M30 26.6666H26.6666V25H13.3333V26.6666H9.99998V25H3.33331V33.3333H36.6666V25H30V26.6666ZM33.3333 13.3333H28.3333V9.99996C28.3333 8.16663 26.8333 6.66663 25 6.66663H15C13.1666 6.66663 11.6666 8.16663 11.6666 9.99996V13.3333H6.66665C4.83331 13.3333 3.33331 14.8333 3.33331 16.6666V23.3333H9.99998V20H13.3333V23.3333H26.6666V20H30V23.3333H36.6666V16.6666C36.6666 14.8333 35.1666 13.3333 33.3333 13.3333ZM25 13.3333H15V9.99996H25V13.3333Z" fill="white"/>
</g>
<defs>
<clipPath id="clip0_547_118">
<rect width="40" height="40" fill="white"/>
</clipPath>
</defs>
</svg>
